<?xml version="1.0" standalone="no"?>
<!DOCTYPE svg PUBLIC "-//W3C//DTD SVG 20010904//EN"
 "http://www.w3.org/TR/2001/REC-SVG-20010904/DTD/svg10.dtd">
<svg version="1.0" xmlns="http://www.w3.org/2000/svg"
 width="275.000000pt" height="275.000000pt" viewBox="0 0 275.000000 275.000000"
 preserveAspectRatio="xMidYMid meet">
<metadata>
Created by potrace 1.14, written by Peter Selinger 2001-2017
</metadata>
<g transform="translate(0.000000,275.000000) scale(0.100000,-0.100000)"
fill="#000000" stroke="none">
<path d="M813 2119 c-12 -4 -29 -22 -39 -40 -14 -29 -15 -44 -4 -143 7 -61 14
-118 15 -126 2 -9 6 -51 9 -95 4 -43 8 -81 10 -84 2 -3 7 -37 10 -76 4 -38 9
-83 11 -100 9 -56 14 -100 20 -170 8 -89 20 -127 48 -152 33 -29 70 -27 102 5
27 27 27 28 21 117 -3 50 -8 100 -10 112 -3 12 -7 50 -11 84 -4 35 -8 66 -11
70 -6 10 17 26 49 34 20 5 30 15 34 36 3 16 10 33 17 38 8 7 11 -13 12 -72 1
-75 6 -124 20 -186 10 -48 19 -50 195 -44 90 3 189 1 220 -4 31 -5 65 -6 77
-2 34 13 54 55 60 125 5 66 5 66 -17 55 -20 -11 -41 -11 -151 5 -38 6 -177 5
-222 -1 -25 -3 -47 10 -36 21 3 2 25 7 49 10 56 7 84 20 99 49 11 20 10 29 -7
57 -19 33 -20 33 -94 32 -41 -1 -99 -4 -130 -8 l-57 -7 -13 43 c-15 45 -22 49
-79 36 -19 -4 -38 -4 -42 0 -5 5 -11 35 -14 67 -17 165 -34 260 -52 284 -21
29 -58 41 -89 30z"/>
<path d="M1895 2095 c-14 -13 -25 -32 -26 -42 0 -10 -2 -26 -4 -35 -2 -10 -6
-42 -9 -70 -21 -206 -22 -209 -81 -206 -25 0 -47 -1 -49 -3 -2 -2 -7 -33 -10
-68 -4 -35 -7 -66 -8 -70 -2 -23 7 -32 47 -42 45 -11 58 -27 51 -65 -2 -11 -7
-54 -10 -95 -4 -41 -10 -99 -14 -129 -14 -100 13 -160 73 -160 52 0 78 38 89
130 9 75 36 321 42 380 3 30 7 66 10 80 2 14 6 56 10 95 3 38 7 72 9 75 2 3 6
49 10 102 7 95 7 97 -18 122 -34 34 -80 34 -112 1z"/>
<path d="M624 1975 c-24 -24 -25 -29 -19 -108 3 -45 8 -89 10 -97 2 -8 7 -44
10 -80 4 -36 9 -73 10 -82 2 -9 6 -45 10 -80 3 -35 8 -74 10 -88 2 -14 7 -53
10 -87 3 -34 8 -72 10 -85 5 -28 49 -68 75 -68 30 0 70 42 72 75 1 17 -2 62
-6 100 -5 39 -9 81 -11 95 -1 14 -5 48 -8 75 -4 28 -9 73 -12 100 -17 167 -27
242 -35 279 -16 73 -78 99 -126 51z"/>
<path d="M2066 1975 c-12 -13 -23 -30 -23 -37 0 -11 -17 -152 -28 -243 -2 -16
-7 -52 -10 -80 -3 -27 -7 -68 -10 -90 -24 -208 -26 -259 -13 -284 17 -32 62
-47 94 -32 35 15 45 47 59 176 7 60 15 129 20 170 2 17 7 64 10 105 4 41 8 86
10 99 3 13 7 61 11 107 6 79 6 83 -19 108 -33 33 -71 33 -101 1z"/>
<path d="M1284 1859 c-13 -14 -19 -38 -21 -79 -2 -66 3 -73 57 -76 19 -1 44
-4 55 -6 19 -3 20 2 19 70 -2 54 -6 78 -20 93 -23 25 -66 24 -90 -2z"/>
<path d="M1434 1859 c-17 -18 -19 -37 -19 -151 0 -129 0 -130 27 -153 31 -27
60 -24 81 9 19 29 31 233 17 272 -6 16 -17 32 -23 36 -23 14 -64 8 -83 -13z"/>
<path d="M1139 1857 c-30 -23 -39 -54 -33 -109 4 -29 8 -56 11 -61 5 -9 81 2
107 15 15 8 18 19 14 69 -6 84 -51 123 -99 86z"/>
<path d="M1604 1852 c-25 -16 -34 -57 -40 -171 -5 -112 -4 -121 15 -140 26
-26 63 -27 84 -3 18 20 24 53 33 183 6 90 5 98 -15 118 -21 21 -56 27 -77 13z"/>
<path d="M2305 1691 c-11 -5 -35 -23 -52 -41 -17 -18 -42 -38 -55 -44 -28 -14
-36 -55 -13 -72 9 -6 18 -24 21 -39 20 -111 121 -162 302 -153 151 9 232 54
232 130 0 32 -7 46 -43 82 -106 105 -301 173 -392 137z"/>
<path d="M320 1645 c-80 -19 -171 -39 -203 -46 -43 -10 -57 -17 -55 -29 4 -19
10 -18 187 14 130 24 165 27 149 10 -8 -8 -136 -41 -245 -64 -60 -12 -94 -32
-75 -43 4 -3 26 -2 48 3 120 27 279 49 287 41 6 -6 -1 -12 -19 -17 -16 -3 -65
-15 -109 -26 -81 -20 -93 -23 -153 -34 -30 -6 -52 -27 -40 -39 2 -3 75 9 162
25 87 17 163 30 168 30 15 0 4 -23 -13 -26 -7 -2 -79 -18 -158 -35 -130 -30
-167 -46 -148 -66 3 -3 77 9 164 26 87 16 174 33 193 36 56 9 74 16 98 39 26
23 69 104 66 124 -1 6 -2 16 -3 22 -2 18 -108 90 -132 89 -13 0 -89 -16 -169
-34z"/>
<path d="M139 962 c-1 -20 -1 -260 0 -284 1 -12 9 -16 34 -15 l32 2 5 90 5 90
19 -51 c18 -47 21 -50 56 -51 34 -1 37 2 57 51 l22 51 0 -91 1 -92 35 0 c39 0
36 -11 36 133 0 36 0 92 0 124 l-1 59 -37 -1 c-37 -2 -39 -4 -73 -74 -19 -40
-38 -72 -41 -73 -4 0 -21 33 -38 74 -33 73 -33 74 -72 74 -30 1 -39 -3 -40
-16z"/>
<path d="M499 932 c-1 -118 3 -207 12 -224 33 -62 175 -62 209 1 5 11 10 76
10 145 l0 125 -35 -2 -35 -2 0 -122 0 -123 -27 -6 c-51 -13 -58 2 -61 134 l-3
120 -34 0 c-35 0 -35 0 -36 -46z"/>
<path d="M790 821 l0 -158 33 1 c32 0 32 1 37 60 l5 59 35 -49 c19 -27 40 -55
47 -62 13 -14 73 -13 73 1 0 10 -91 130 -102 135 -14 6 -9 16 42 87 28 38 50
73 50 77 0 5 -14 7 -31 6 -24 -2 -39 -14 -75 -62 l-44 -60 0 60 0 59 -35 2
-35 2 0 -158z"/>
<path d="M1132 973 c-12 -3 -40 -21 -61 -41 -62 -59 -68 -149 -14 -213 89
-105 281 -62 295 66 l3 30 -77 3 -77 3 1 -31 c1 -27 4 -30 31 -30 29 0 30 0
12 -20 -36 -40 -124 -15 -143 39 -35 100 83 187 154 115 21 -20 32 -24 55 -19
16 4 29 12 29 19 0 14 -45 59 -77 75 -21 11 -85 13 -131 4z"/>
<path d="M1370 967 c0 -5 23 -46 51 -89 42 -66 50 -86 49 -121 -4 -93 -3 -95
35 -94 l35 1 0 76 c1 73 2 77 50 150 27 41 45 79 41 83 -5 5 -21 7 -37 5 -22
-2 -35 -15 -60 -56 -34 -58 -36 -57 -72 15 -19 36 -25 41 -57 41 -19 0 -35 -5
-35 -11z"/>
<path d="M1689 977 c-4 -8 -3 -300 1 -307 3 -5 19 -8 35 -7 l30 2 1 75 c2 101
2 101 27 50 20 -39 26 -45 55 -46 31 -1 36 3 57 50 l23 51 1 -91 1 -91 33 1
32 1 3 156 2 155 -39 1 -39 1 -33 -74 c-19 -40 -37 -73 -40 -74 -4 0 -16 21
-28 48 -43 95 -44 97 -84 99 -20 1 -37 1 -38 0z"/>
<path d="M2049 958 c0 -10 0 -74 0 -143 0 -69 0 -132 0 -140 1 -10 10 -14 34
-12 35 3 33 -5 37 132 l1 50 24 -52 c21 -47 26 -52 55 -51 29 1 35 7 56 52 27
57 24 63 27 -69 l2 -60 33 -3 32 -3 0 161 0 161 -37 -3 c-36 -3 -40 -6 -73
-75 -19 -40 -37 -73 -41 -73 -3 0 -20 33 -38 73 -32 74 -32 74 -71 74 -32 0
-40 -4 -41 -19z"/>
<path d="M2475 966 c-16 -48 -75 -276 -75 -289 0 -27 58 -17 73 13 11 21 20
25 57 25 39 0 45 -3 50 -25 5 -21 12 -25 43 -26 29 -1 36 3 33 15 -2 9 -21 80
-42 157 l-37 142 -50 -1 c-27 0 -50 -5 -52 -11z m81 -183 c-2 -3 -16 -6 -30
-7 -30 -4 -31 1 -14 75 l12 53 18 -58 c10 -33 16 -61 14 -63z"/>
</g>
</svg>
