<?xml version="1.0" standalone="no"?>
<!DOCTYPE svg PUBLIC "-//W3C//DTD SVG 20010904//EN"
 "http://www.w3.org/TR/2001/REC-SVG-20010904/DTD/svg10.dtd">
<svg version="1.0" xmlns="http://www.w3.org/2000/svg"
 width="2409.000000pt" height="2409.000000pt" viewBox="0 0 2409.000000 2409.000000"
 preserveAspectRatio="xMidYMid meet">
<metadata>
Created by potrace 1.14, written by Peter Selinger 2001-2017
</metadata>
<g transform="translate(0.000000,2409.000000) scale(0.100000,-0.100000)"
fill="#000000" stroke="none">
<path d="M7129 16445 c-84 -17 -199 -70 -265 -122 -103 -83 -192 -230 -233
-387 -28 -105 -45 -282 -37 -381 4 -44 83 -735 177 -1535 323 -2765 538 -4616
574 -4925 50 -435 69 -517 156 -687 59 -112 184 -241 285 -291 106 -53 181
-70 314 -70 215 0 380 72 502 220 106 128 157 282 165 493 4 119 -3 205 -62
735 -83 758 -134 1189 -186 1575 -46 342 -48 435 -11 506 48 93 124 129 304
143 243 20 332 109 357 359 16 149 76 248 189 310 l43 24 -5 -24 c-26 -117
-35 -638 -16 -889 17 -213 47 -463 110 -920 64 -461 77 -514 147 -617 127
-186 314 -252 588 -207 849 140 1856 147 2825 19 102 -13 232 -30 290 -38 326
-43 540 81 673 388 93 217 127 442 142 941 3 99 8 218 11 265 l6 85 -41 -52
c-51 -64 -145 -127 -220 -150 -88 -27 -222 -21 -581 25 -982 126 -1464 143
-2248 82 -321 -25 -410 -27 -439 -11 -49 26 -70 122 -37 169 37 54 86 64 448
97 154 14 306 32 338 40 293 76 526 354 544 648 5 87 3 87 -37 -8 l-21 -50
-27 85 c-99 302 -207 423 -409 460 -68 12 -281 12 -432 -1 -159 -13 -233 -19
-285 -24 -266 -26 -702 -70 -929 -94 -307 -33 -301 -33 -360 26 -47 45 -73
118 -106 292 -57 299 -100 361 -252 361 -47 0 -453 -67 -578 -95 -86 -19 -106
-19 -155 5 -78 38 -96 92 -125 380 -32 324 -96 899 -151 1350 -106 886 -111
916 -206 1110 -50 102 -67 125 -147 206 -71 71 -108 99 -166 128 -129 63 -274
80 -421 51z"/>
<path d="M16350 16410 c-41 -11 -118 -41 -170 -66 -173 -86 -306 -251 -354
-439 -19 -75 -53 -349 -156 -1270 -96 -859 -125 -1088 -146 -1175 -54 -214
-138 -243 -524 -175 -219 38 -293 32 -347 -26 -40 -44 -55 -100 -74 -289 -11
-102 -40 -329 -65 -505 -51 -354 -59 -501 -32 -550 42 -78 103 -103 387 -165
396 -85 440 -118 441 -324 0 -55 -22 -283 -50 -525 -93 -801 -210 -1912 -210
-1999 1 -184 32 -378 81 -501 103 -258 292 -384 579 -384 100 -1 125 3 195 27
107 37 183 85 263 166 83 85 152 197 197 322 46 130 62 222 85 503 10 132 180
1676 375 3430 393 3522 374 3315 321 3480 -34 105 -85 190 -165 273 -101 103
-202 165 -324 198 -74 20 -217 17 -307 -6z"/>
<path d="M5720 15396 c-180 -54 -298 -153 -380 -321 -90 -182 -98 -312 -46
-730 37 -298 129 -1084 306 -2605 143 -1233 268 -2271 285 -2373 30 -174 102
-316 216 -422 118 -110 244 -159 409 -158 361 0 603 266 626 688 5 86 -10 239
-110 1105 -63 553 -145 1259 -180 1570 -36 311 -88 765 -116 1010 -119 1046
-183 1570 -205 1678 -84 414 -447 666 -805 558z"/>
<path d="M17722 15400 c-104 -28 -167 -65 -248 -146 -58 -57 -81 -90 -123
-175 -86 -175 -89 -190 -226 -1389 -69 -597 -127 -1103 -130 -1125 -63 -512
-276 -2494 -316 -2934 -29 -329 21 -523 175 -676 112 -110 233 -161 406 -172
311 -18 547 167 640 500 39 138 81 498 476 4077 124 1124 135 1246 130 1355
-7 142 -18 213 -52 317 -61 186 -197 313 -389 363 -100 26 -257 29 -343 5z"/>
<path d="M11190 14427 c-219 -75 -366 -256 -411 -507 -10 -61 -1 -465 17 -735
7 -110 37 -176 95 -205 47 -25 109 -24 311 1 151 18 245 1 408 -75 203 -96
238 -104 267 -59 16 24 19 63 25 298 8 363 -13 717 -52 871 -51 199 -195 361
-367 414 -90 28 -207 27 -293 -3z"/>
<path d="M12520 14438 c-207 -28 -392 -214 -461 -463 -21 -77 -22 -103 -31
-795 -10 -767 -6 -1025 17 -1134 32 -153 138 -309 267 -395 135 -91 310 -107
443 -42 161 80 281 265 315 486 15 105 73 1336 74 1600 1 195 -2 240 -17 295
-36 124 -103 237 -195 325 -54 52 -179 112 -249 120 -32 4 -67 8 -78 9 -11 1
-49 -2 -85 -6z"/>
<path d="M9910 14320 c-103 -28 -194 -85 -277 -174 -74 -79 -117 -151 -154
-256 -39 -110 -32 -313 27 -800 29 -239 38 -282 71 -321 30 -35 45 -36 115 -4
83 38 192 62 399 90 230 31 276 39 359 67 105 34 138 66 154 148 9 46 -41 734
-60 830 -17 89 -60 185 -114 256 -107 142 -335 214 -520 164z"/>
<path d="M13770 14266 c-117 -26 -202 -82 -276 -179 -134 -176 -162 -331 -189
-1017 -9 -217 -22 -456 -31 -530 -39 -358 -40 -524 -3 -668 61 -238 235 -425
431 -460 227 -42 473 145 543 413 47 183 185 1547 185 1830 -1 294 -197 555
-459 611 -79 16 -127 16 -201 0z"/>
<path d="M19830 12944 c-250 -32 -468 -115 -640 -246 -106 -79 -251 -234 -340
-362 -101 -146 -131 -167 -253 -177 -52 -4 -110 -14 -128 -22 -39 -16 -85 -59
-105 -99 -46 -88 -65 -333 -31 -395 25 -47 54 -71 125 -106 101 -49 121 -85
146 -277 51 -373 215 -659 504 -879 296 -224 712 -380 1157 -435 202 -25 259
-28 570 -27 317 1 382 4 617 27 473 46 936 189 1223 375 106 70 260 224 314
316 72 121 94 199 99 344 5 153 -15 246 -82 384 -84 172 -193 303 -401 480
-684 581 -1427 936 -2255 1075 -121 21 -433 35 -520 24z"/>
<path d="M4170 12745 c-58 -7 -186 -31 -285 -54 -525 -118 -2054 -473 -2625
-609 -91 -22 -204 -45 -251 -51 -210 -28 -283 -84 -265 -206 18 -116 108 -147
301 -105 106 24 223 46 1435 271 503 93 929 174 945 179 99 29 163 20 184 -26
12 -27 15 -83 5 -108 -10 -27 -67 -54 -139 -66 -39 -7 -149 -31 -245 -55 -96
-24 -276 -67 -398 -95 -829 -189 -1848 -440 -1894 -467 -70 -41 -73 -161 -5
-204 27 -18 43 -20 109 -15 43 3 104 12 135 20 32 8 468 89 968 180 501 91
1027 187 1170 213 143 26 284 48 313 48 47 0 57 -4 78 -29 20 -23 24 -37 22
-74 -3 -39 -8 -50 -35 -68 -18 -12 -63 -27 -100 -34 -37 -7 -150 -32 -251 -56
-100 -24 -325 -77 -500 -118 -174 -41 -560 -132 -857 -202 -297 -70 -583 -135
-635 -145 -52 -10 -122 -23 -155 -29 -83 -15 -162 -55 -180 -90 -19 -37 -19
-113 0 -150 42 -81 111 -89 290 -35 76 23 239 56 468 95 316 53 1035 182 1447
260 668 126 629 123 651 50 11 -36 10 -44 -7 -68 -46 -62 -66 -68 -1159 -322
-379 -88 -841 -196 -1025 -240 -184 -43 -370 -86 -412 -95 -91 -19 -136 -47
-162 -99 -17 -35 -18 -46 -8 -95 22 -104 84 -136 212 -107 68 16 139 30 1040
201 846 161 1112 210 1570 290 234 41 460 84 502 95 432 114 690 341 817 720
25 76 45 112 125 221 74 101 107 187 113 299 12 206 -75 371 -264 500 -87 60
-268 198 -385 293 -210 172 -378 218 -658 182z"/>
</g>
</svg>
