<?xml version="1.0" standalone="no"?>
<!DOCTYPE svg PUBLIC "-//W3C//DTD SVG 20010904//EN"
 "http://www.w3.org/TR/2001/REC-SVG-20010904/DTD/svg10.dtd">
<svg version="1.0" xmlns="http://www.w3.org/2000/svg"
 width="548.000000pt" height="548.000000pt" viewBox="0 0 548.000000 548.000000"
 preserveAspectRatio="xMidYMid meet">
<metadata>
Created by potrace 1.14, written by Peter Selinger 2001-2017
</metadata>
<g transform="translate(0.000000,548.000000) scale(0.100000,-0.100000)"
fill="#000000" stroke="none">
<path d="M3228 3845 c-2 -2 -21 -6 -43 -9 -22 -4 -49 -9 -60 -12 -44 -12 -116
-45 -133 -61 -7 -7 -17 -13 -22 -13 -5 0 -37 -27 -70 -61 -63 -63 -107 -138
-133 -225 -16 -54 -21 -220 -7 -229 8 -5 71 -13 145 -19 40 -3 148 20 194 41
142 65 255 193 296 333 17 61 22 217 6 233 -4 4 -30 10 -57 13 -27 3 -63 6
-81 8 -18 2 -33 2 -35 1z"/>
<path d="M2206 3719 c-16 -5 -33 -6 -37 -4 -15 10 -31 -26 -33 -75 -1 -28 0
-53 3 -55 2 -3 6 -18 7 -34 13 -118 142 -263 267 -303 76 -24 230 -28 243 -6
7 11 7 117 0 146 -3 12 -8 30 -10 40 -32 134 -182 266 -326 287 -76 12 -84 12
-114 4z"/>
<path d="M2258 3175 c-1 -1 -30 -5 -62 -9 -125 -13 -281 -115 -359 -233 -29
-45 -79 -153 -71 -153 3 0 0 -8 -5 -19 -6 -10 -13 -31 -16 -47 -2 -16 -7 -40
-10 -54 -5 -23 -6 -135 -2 -220 3 -47 -20 -56 -129 -56 l-88 1 -1 145 c0 80
-4 151 -9 158 -8 13 -52 35 -71 36 -33 1 -94 -16 -106 -30 -11 -13 -14 -88
-14 -367 -1 -337 0 -352 19 -374 16 -19 30 -23 82 -23 94 0 99 10 99 188 0
119 2 142 15 143 8 0 58 1 110 3 107 2 144 16 183 68 22 30 43 82 39 100 -49
231 48 475 226 571 98 53 242 65 362 32 30 -9 60 -17 65 -18 30 -7 125 -88
125 -107 0 -3 9 -15 19 -27 29 -31 101 -15 101 22 0 20 120 117 150 121 3 0
30 6 61 13 182 39 329 4 437 -106 56 -57 112 -155 126 -218 3 -16 9 -41 12
-55 3 -14 7 -45 8 -70 4 -59 14 -90 31 -90 7 0 15 -4 17 -10 2 -6 18 -3 38 8
34 16 35 19 35 75 1 58 -18 175 -34 212 -97 227 -233 349 -431 383 -66 11
-251 3 -295 -13 -61 -23 -131 -58 -163 -83 -39 -30 -72 -51 -60 -37 11 12
-135 104 -169 106 -5 1 -15 5 -24 10 -22 12 -231 33 -241 24z"/>
<path d="M1158 2719 c-15 -4 -29 -4 -32 -1 -4 3 -16 -5 -28 -17 -21 -23 -21
-30 -22 -373 -1 -348 -1 -351 21 -374 18 -20 32 -24 82 -24 95 0 103 16 101
218 0 6 0 32 0 57 0 25 0 53 0 63 0 9 0 64 -1 122 0 58 0 110 1 115 1 6 1 15
0 20 -2 13 -2 87 0 100 1 6 1 13 0 18 -1 4 -3 10 -4 15 -9 38 -20 51 -54 59
-20 5 -49 6 -64 2z"/>
<path d="M4195 2719 c-68 -12 -68 -9 -67 -377 0 -180 1 -337 1 -349 2 -42 35
-63 99 -63 45 0 63 5 80 21 22 20 22 21 22 372 -1 261 -4 356 -13 368 -17 23
-75 36 -122 28z"/>
<path d="M861 2701 c-12 -12 -21 -24 -22 -28 0 -5 -1 -71 -2 -148 l-2 -139
-44 -2 c-44 -1 -81 -28 -81 -59 0 -24 42 -66 64 -64 69 5 65 13 64 -133 -1
-182 7 -198 99 -198 75 0 105 23 103 79 -1 20 -1 38 -1 41 2 8 2 313 0 325 -1
6 -1 13 0 17 2 12 2 137 0 213 -2 95 -12 108 -93 113 -55 4 -67 1 -85 -17z"/>
<path d="M3904 2689 c-10 -20 -14 -66 -14 -166 l0 -139 -117 1 c-191 1 -244
-17 -282 -99 -252 -547 -284 -598 -407 -656 -63 -30 -174 -49 -174 -29 0 6 -4
8 -8 5 -16 -9 -90 32 -131 74 -52 53 -83 56 -123 11 -15 -17 -31 -31 -34 -31
-4 0 -15 -9 -25 -21 -9 -11 -21 -21 -26 -21 -4 0 -18 -4 -30 -9 -141 -53 -314
44 -401 224 -22 45 -70 145 -107 222 -37 77 -74 148 -83 158 -33 37 -107 3
-98 -46 8 -47 222 -487 237 -487 5 0 9 -6 9 -14 0 -18 89 -99 144 -131 140
-82 306 -80 424 5 48 34 55 36 73 14 7 -8 31 -25 53 -36 134 -69 278 -56 416
36 91 60 126 111 233 326 56 113 102 207 102 210 4 20 75 159 84 164 9 6 178
10 254 7 15 -1 17 -15 17 -144 0 -130 2 -145 20 -165 17 -18 32 -22 80 -22 64
0 99 21 101 58 3 117 -1 675 -5 690 -9 28 -54 44 -115 41 -46 -2 -54 -6 -67
-30z"/>
<path d="M4382 2691 c-16 -24 -17 -59 -16 -375 l1 -349 22 -19 c23 -18 92 -24
137 -12 35 9 42 43 41 182 0 73 2 134 4 136 2 2 23 6 46 9 55 6 73 21 73 62 0
42 -19 57 -75 58 -25 1 -45 6 -46 12 0 5 0 70 -1 142 0 117 -2 136 -20 158
-18 23 -26 25 -84 24 -58 -1 -66 -4 -82 -28z"/>
</g>
</svg>
